<svg id="Layer_1" data-name="Layer 1" xmlns="http://www.w3.org/2000/svg" viewBox="0 0 100 100"><defs><style>.cls-1{fill:#008cff;}</style></defs><title>email-selected</title><path class="cls-1" d="M93.56,25.63A36.41,36.41,0,0,0,84.07,13,42.59,42.59,0,0,0,69.8,5.09,55.77,55.77,0,0,0,52,2.33,53,53,0,0,0,32.79,5.82a48.59,48.59,0,0,0-15.95,10A47.72,47.72,0,0,0,5.91,31.41,50.12,50.12,0,0,0,1.84,51.95,50.72,50.72,0,0,0,5.38,71.59a39.44,39.44,0,0,0,9.85,14.23,41.87,41.87,0,0,0,14.9,8.65,58,58,0,0,0,18.71,2.92A55.25,55.25,0,0,0,59,96.55a34.21,34.21,0,0,0,8.7-2.92,7.22,7.22,0,0,0,.86-6.07,6.31,6.31,0,0,0-4.09-3.94,29.5,29.5,0,0,1-7,2.19,37.66,37.66,0,0,1-6.88.72,47.64,47.64,0,0,1-15.9-2.45,31.61,31.61,0,0,1-11.62-7,29.71,29.71,0,0,1-7.14-11,41,41,0,0,1-2.45-14.59,39.41,39.41,0,0,1,2.92-15.27,36.59,36.59,0,0,1,8.08-12.14,37.88,37.88,0,0,1,12.14-8,38.76,38.76,0,0,1,15.11-2.92A50.4,50.4,0,0,1,65,14.84a29.28,29.28,0,0,1,10.69,5.26,25.16,25.16,0,0,1,7.14,9.12,31.14,31.14,0,0,1,2.61,13.34,30.15,30.15,0,0,1-1.3,9.38,20.8,20.8,0,0,1-3.39,6.56A13.57,13.57,0,0,1,76,62.37a12.16,12.16,0,0,1-5.31,1.25,3.31,3.31,0,0,1-3.49-2.19q-.78-2.19.06-7.09l5-28.25H65l-3.23,3.34a18.49,18.49,0,0,0-4.59-2.87A15.34,15.34,0,0,0,51,25.47,19.15,19.15,0,0,0,41,28.34a30.14,30.14,0,0,0-8.34,7.56A37.58,37.58,0,0,0,27,46.68a38.58,38.58,0,0,0-2.08,12.56,18.69,18.69,0,0,0,1,6.25,15.05,15.05,0,0,0,2.66,4.8,11.75,11.75,0,0,0,4,3.08,11,11,0,0,0,4.79,1.09A16.9,16.9,0,0,0,43,73.52,18.67,18.67,0,0,0,47.81,71a25.33,25.33,0,0,0,4-3.7q1.82-2.08,3.38-4.27h.42A13.18,13.18,0,0,0,56,68.41,8.06,8.06,0,0,0,58.28,72,8.76,8.76,0,0,0,62,73.89a19.43,19.43,0,0,0,4.85.57A27.88,27.88,0,0,0,78.61,72a30.85,30.85,0,0,0,16-16.88A33.23,33.23,0,0,0,97,42.56,40,40,0,0,0,93.56,25.63ZM55.83,53.1a30.35,30.35,0,0,1-2.61,4,28.64,28.64,0,0,1-3,3.33A15.34,15.34,0,0,1,47,62.74a6.7,6.7,0,0,1-3.13.88q-3.44,0-4.84-2.19a10.23,10.23,0,0,1-1.41-5.63,23.9,23.9,0,0,1,1-6.83,22.4,22.4,0,0,1,3-6.3,16.85,16.85,0,0,1,4.59-4.58A10.21,10.21,0,0,1,52,36.31a9.27,9.27,0,0,1,3.65.63,11.12,11.12,0,0,1,2.81,1.77Z"/></svg>