<svg id="Layer_1" data-name="Layer 1" xmlns="http://www.w3.org/2000/svg" viewBox="0 0 100 100"><defs><style>.cls-1{fill:#4975e2;}</style></defs><title>twitter</title><path class="cls-1" d="M2.64,79.56a55.37,55.37,0,0,0,30,8.79c36.32,0,56.84-30.68,55.61-58.2A39.65,39.65,0,0,0,98,20,39.09,39.09,0,0,1,86.77,23.1a19.6,19.6,0,0,0,8.6-10.82A39.21,39.21,0,0,1,82.94,17,19.58,19.58,0,0,0,49.61,34.87,55.52,55.52,0,0,1,9.28,14.43a19.59,19.59,0,0,0,6.05,26.12,19.49,19.49,0,0,1-8.86-2.45A19.59,19.59,0,0,0,22.17,57.54a19.58,19.58,0,0,1-8.83.33A19.57,19.57,0,0,0,31.61,71.46,39.32,39.32,0,0,1,2.64,79.56Z"/></svg>