<svg id="Layer_1" data-name="Layer 1" xmlns="http://www.w3.org/2000/svg" viewBox="0 0 100 100"><defs><style>.cls-1{fill:#008cff;}</style></defs><title>website-selected</title><path class="cls-1" d="M85.13,81.35a47.35,47.35,0,0,0,.25-62.43,2.52,2.52,0,0,0-1-1.09,47.4,47.4,0,0,0-69.8,0,2.91,2.91,0,0,0-.3.21,3,3,0,0,0-.66.86,47.46,47.46,0,0,0,71,63h0A3,3,0,0,0,85.13,81.35ZM8.08,53H24.34A85.63,85.63,0,0,0,26.12,68a47.5,47.5,0,0,0-9.59,7.17A41.32,41.32,0,0,1,8.08,53Zm8.45-28.19a47.51,47.51,0,0,0,9.59,7.17A85.69,85.69,0,0,0,24.34,47H8.08A41.32,41.32,0,0,1,16.53,24.76ZM90.95,47H74.69a85.66,85.66,0,0,0-1.78-15.09,47.48,47.48,0,0,0,9.59-7.17A41.32,41.32,0,0,1,90.95,47ZM52.57,9C58.2,11,63.09,18.51,66,28.75a41.55,41.55,0,0,1-13.43,3.3ZM46.63,32.07A41.54,41.54,0,0,1,33,28.75C36,18.4,40.93,10.86,46.63,8.93Zm0,6v9H30.28a81.12,81.12,0,0,1,1.37-12.42A47.46,47.46,0,0,0,46.63,38Zm0,14.94v9a47.48,47.48,0,0,0-15,3.42A81.17,81.17,0,0,1,30.28,53Zm0,15V91.06C40.93,89.12,36,81.58,33,71.23A41.58,41.58,0,0,1,46.63,67.92Zm5.94,0A41.55,41.55,0,0,1,66,71.23C63.09,81.48,58.2,89,52.57,91Zm0-6V53H68.75a81.13,81.13,0,0,1-1.37,12.42A47.47,47.47,0,0,0,52.57,62Zm0-15V38a47.47,47.47,0,0,0,14.81-3.4A81.15,81.15,0,0,1,68.75,47Zm18.8-21.08a48,48,0,0,0-7.2-14.83,41.65,41.65,0,0,1,14.39,9.2A41.53,41.53,0,0,1,71.37,25.95Zm-43.7,0a41.54,41.54,0,0,1-7.19-5.63,41.64,41.64,0,0,1,14.39-9.2A48,48,0,0,0,27.66,25.95Zm0,48.09a48,48,0,0,0,7.2,14.83,41.64,41.64,0,0,1-14.39-9.2A41.54,41.54,0,0,1,27.66,74Zm43.7,0a41.54,41.54,0,0,1,7.2,5.62,41.64,41.64,0,0,1-14.39,9.2A48,48,0,0,0,71.37,74Zm1.54-6A85.66,85.66,0,0,0,74.69,53H90.95A41.32,41.32,0,0,1,82.5,75.22,47.51,47.51,0,0,0,72.91,68.05Z"/></svg>