<svg id="Layer_1" data-name="Layer 1" xmlns="http://www.w3.org/2000/svg" viewBox="0 0 200 600"><defs><style>.cls-1{fill:#4975e2;}.cls-2{fill:#2454c9;}</style></defs><title>sprite-sheet</title><path class="cls-1" d="M50.4,10.66c12.84,0,14.36,0,19.43.28a26.61,26.61,0,0,1,8.93,1.66,14.89,14.89,0,0,1,5.53,3.6,14.89,14.89,0,0,1,3.6,5.53,26.61,26.61,0,0,1,1.66,8.93c.23,5.07.28,6.59.28,19.43s0,14.36-.28,19.43a26.6,26.6,0,0,1-1.66,8.93,15.92,15.92,0,0,1-9.12,9.12,26.6,26.6,0,0,1-8.93,1.66c-5.07.23-6.59.28-19.43.28S36,89.44,31,89.21A26.6,26.6,0,0,1,22,87.56,14.9,14.9,0,0,1,16.52,84a14.9,14.9,0,0,1-3.6-5.53,26.6,26.6,0,0,1-1.66-8.93C11,64.44,11,62.91,11,50.08s0-14.36.28-19.43a26.61,26.61,0,0,1,1.66-8.93,14.9,14.9,0,0,1,3.6-5.53A14.89,14.89,0,0,1,22,12.6,26.61,26.61,0,0,1,31,10.94c5.07-.23,6.59-.28,19.43-.28M50.4,2c-13.06,0-14.69.06-19.82.29A35.3,35.3,0,0,0,18.91,4.52a23.56,23.56,0,0,0-8.52,5.55,23.56,23.56,0,0,0-5.55,8.52A35.29,35.29,0,0,0,2.62,30.26c-.23,5.13-.29,6.76-.29,19.82s.06,14.69.29,19.82A35.28,35.28,0,0,0,4.85,81.57a23.57,23.57,0,0,0,5.55,8.52,23.56,23.56,0,0,0,8.52,5.55,35.3,35.3,0,0,0,11.67,2.23c5.13.23,6.77.29,19.82.29s14.69-.06,19.82-.29A35.3,35.3,0,0,0,81.9,95.63,24.58,24.58,0,0,0,96,81.57,35.28,35.28,0,0,0,98.19,69.9c.23-5.13.29-6.76.29-19.82s-.06-14.69-.29-19.82A35.29,35.29,0,0,0,96,18.58a23.56,23.56,0,0,0-5.55-8.52A23.56,23.56,0,0,0,81.9,4.52,35.3,35.3,0,0,0,70.23,2.29C65.1,2.06,63.46,2,50.4,2"/><path class="cls-1" d="M50.4,25.39A24.69,24.69,0,1,0,75.09,50.08,24.69,24.69,0,0,0,50.4,25.39m0,40.71a16,16,0,1,1,16-16,16,16,0,0,1-16,16"/><path class="cls-1" d="M81.84,24.41a5.77,5.77,0,1,1-5.77-5.77,5.77,5.77,0,0,1,5.77,5.77"/><path class="cls-1" d="M38.79,198H58.1V149.66H71.56L73,133.47H58.1v-9.22c0-3.82.77-5.32,4.46-5.32H73v-16.8H59.63c-14.36,0-20.84,6.33-20.84,18.44v12.9h-10v16.39h10Z"/><path class="cls-1" d="M3.64,279.56a55.37,55.37,0,0,0,30,8.79c36.32,0,56.84-30.68,55.61-58.2A39.65,39.65,0,0,0,99,220a39.09,39.09,0,0,1-11.23,3.08,19.6,19.6,0,0,0,8.6-10.82A39.21,39.21,0,0,1,83.94,217a19.58,19.58,0,0,0-33.34,17.84,55.52,55.52,0,0,1-40.32-20.44,19.59,19.59,0,0,0,6.05,26.12,19.49,19.49,0,0,1-8.86-2.45,19.59,19.59,0,0,0,15.69,19.43,19.58,19.58,0,0,1-8.83.33,19.57,19.57,0,0,0,18.27,13.59A39.32,39.32,0,0,1,3.64,279.56Z"/><path class="cls-1" d="M86.13,381.35a47.35,47.35,0,0,0,.25-62.43,2.52,2.52,0,0,0-1-1.09,47.4,47.4,0,0,0-69.8,0,2.91,2.91,0,0,0-.3.21,3,3,0,0,0-.66.86,47.46,47.46,0,0,0,71,63h0A3,3,0,0,0,86.13,381.35ZM9.08,353H25.34A85.63,85.63,0,0,0,27.12,368a47.5,47.5,0,0,0-9.59,7.17A41.32,41.32,0,0,1,9.08,353Zm8.45-28.19a47.51,47.51,0,0,0,9.59,7.17A85.69,85.69,0,0,0,25.34,347H9.08A41.32,41.32,0,0,1,17.53,324.76ZM91.95,347H75.69a85.66,85.66,0,0,0-1.78-15.09,47.48,47.48,0,0,0,9.59-7.17A41.32,41.32,0,0,1,91.95,347ZM53.57,309c5.63,2,10.52,9.51,13.43,19.76a41.55,41.55,0,0,1-13.43,3.3Zm-5.94,23.07A41.54,41.54,0,0,1,34,328.75c2.93-10.35,7.9-17.89,13.6-19.82Zm0,6v9H31.28a81.12,81.12,0,0,1,1.37-12.42A47.46,47.46,0,0,0,47.63,338Zm0,14.94v9a47.48,47.48,0,0,0-15,3.42A81.17,81.17,0,0,1,31.28,353Zm0,15v23.14c-5.7-1.93-10.67-9.47-13.6-19.82A41.58,41.58,0,0,1,47.63,367.92Zm5.94,0A41.55,41.55,0,0,1,67,371.23C64.09,381.48,59.2,389,53.57,391Zm0-6v-9H69.75a81.13,81.13,0,0,1-1.37,12.42A47.47,47.47,0,0,0,53.57,362Zm0-15v-9a47.47,47.47,0,0,0,14.81-3.4A81.15,81.15,0,0,1,69.75,347Zm18.8-21.08a48,48,0,0,0-7.2-14.83,41.65,41.65,0,0,1,14.39,9.2A41.53,41.53,0,0,1,72.37,325.95Zm-43.7,0a41.54,41.54,0,0,1-7.19-5.63,41.64,41.64,0,0,1,14.39-9.2A48,48,0,0,0,28.66,325.95Zm0,48.09a48,48,0,0,0,7.2,14.83,41.64,41.64,0,0,1-14.39-9.2A41.54,41.54,0,0,1,28.66,374Zm43.7,0a41.54,41.54,0,0,1,7.2,5.62,41.64,41.64,0,0,1-14.39,9.2A48,48,0,0,0,72.37,374Zm1.54-6A85.66,85.66,0,0,0,75.69,353H91.95a41.32,41.32,0,0,1-8.45,22.26A47.51,47.51,0,0,0,73.91,368.05Z"/><rect class="cls-1" x="9.39" y="435.7" width="17.76" height="57.39"/><ellipse class="cls-1" cx="18.19" cy="417.59" rx="10.5" ry="10.59"/><path class="cls-1" d="M55.55,463c0-8.07,3.71-12.87,10.82-12.87,6.53,0,9.67,4.61,9.67,12.87v30.13H93.73V456.75c0-15.37-8.71-22.8-20.88-22.8a20,20,0,0,0-17.3,9.48V435.7h-17v57.39h17Z"/><path class="cls-1" d="M94.56,525.63A36.41,36.41,0,0,0,85.07,513a42.59,42.59,0,0,0-14.28-7.92A55.77,55.77,0,0,0,53,502.33a53,53,0,0,0-19.18,3.49,48.59,48.59,0,0,0-15.95,10A47.72,47.72,0,0,0,6.91,531.41a50.12,50.12,0,0,0-4.07,20.54,50.72,50.72,0,0,0,3.54,19.65,39.44,39.44,0,0,0,9.85,14.23,41.87,41.87,0,0,0,14.9,8.65,58,58,0,0,0,18.71,2.92A55.25,55.25,0,0,0,60,596.55a34.21,34.21,0,0,0,8.7-2.92,7.22,7.22,0,0,0,.86-6.07,6.31,6.31,0,0,0-4.09-3.94,29.5,29.5,0,0,1-7,2.19,37.66,37.66,0,0,1-6.88.72,47.64,47.64,0,0,1-15.9-2.45,31.61,31.61,0,0,1-11.62-7,29.71,29.71,0,0,1-7.14-11,41,41,0,0,1-2.45-14.59,39.41,39.41,0,0,1,2.92-15.27,36.59,36.59,0,0,1,8.08-12.14,37.88,37.88,0,0,1,12.14-8,38.76,38.76,0,0,1,15.11-2.92A50.4,50.4,0,0,1,66,514.84a29.28,29.28,0,0,1,10.69,5.26,25.16,25.16,0,0,1,7.14,9.12,31.14,31.14,0,0,1,2.61,13.34,30.15,30.15,0,0,1-1.3,9.38,20.8,20.8,0,0,1-3.39,6.56A13.57,13.57,0,0,1,77,562.37a12.16,12.16,0,0,1-5.31,1.25,3.31,3.31,0,0,1-3.49-2.19q-.78-2.19.06-7.09l5-28.25H66l-3.23,3.34a18.49,18.49,0,0,0-4.59-2.87A15.34,15.34,0,0,0,52,525.47,19.15,19.15,0,0,0,42,528.34a30.14,30.14,0,0,0-8.34,7.56A37.58,37.58,0,0,0,28,546.68a38.58,38.58,0,0,0-2.08,12.56,18.69,18.69,0,0,0,1,6.25,15.05,15.05,0,0,0,2.66,4.8,11.75,11.75,0,0,0,4,3.08,11,11,0,0,0,4.79,1.09,16.9,16.9,0,0,0,5.73-.94A18.67,18.67,0,0,0,48.81,571a25.33,25.33,0,0,0,4-3.7q1.82-2.08,3.38-4.27h.42a13.18,13.18,0,0,0,.42,5.42A8.06,8.06,0,0,0,59.28,572,8.76,8.76,0,0,0,63,573.89a19.43,19.43,0,0,0,4.85.57A27.88,27.88,0,0,0,79.61,572a30.85,30.85,0,0,0,16-16.88A33.23,33.23,0,0,0,98,542.56,40,40,0,0,0,94.56,525.63ZM56.83,553.1a30.35,30.35,0,0,1-2.61,4,28.64,28.64,0,0,1-3,3.33A15.34,15.34,0,0,1,48,562.74a6.7,6.7,0,0,1-3.13.88q-3.44,0-4.84-2.19a10.23,10.23,0,0,1-1.41-5.63,23.9,23.9,0,0,1,1-6.83,22.4,22.4,0,0,1,3-6.3,16.85,16.85,0,0,1,4.59-4.58A10.21,10.21,0,0,1,53,536.31a9.27,9.27,0,0,1,3.65.63,11.12,11.12,0,0,1,2.81,1.77Z"/><path class="cls-2" d="M150.4,10.66c12.84,0,14.36,0,19.43.28a26.61,26.61,0,0,1,8.93,1.66,14.89,14.89,0,0,1,5.53,3.6,14.89,14.89,0,0,1,3.6,5.53,26.61,26.61,0,0,1,1.66,8.93c.23,5.07.28,6.59.28,19.43s0,14.36-.28,19.43a26.6,26.6,0,0,1-1.66,8.93,15.92,15.92,0,0,1-9.12,9.12,26.6,26.6,0,0,1-8.93,1.66c-5.07.23-6.59.28-19.43.28s-14.36,0-19.43-.28A26.6,26.6,0,0,1,122,87.56a15.92,15.92,0,0,1-9.12-9.12,26.6,26.6,0,0,1-1.66-8.93c-.23-5.07-.28-6.59-.28-19.43s0-14.36.28-19.43a26.61,26.61,0,0,1,1.66-8.93,14.9,14.9,0,0,1,3.6-5.53A14.89,14.89,0,0,1,122,12.6,26.61,26.61,0,0,1,131,10.94c5.07-.23,6.59-.28,19.43-.28m0-8.66c-13.06,0-14.69.06-19.82.29a35.3,35.3,0,0,0-11.67,2.23,23.56,23.56,0,0,0-8.52,5.55,23.56,23.56,0,0,0-5.55,8.52,35.29,35.29,0,0,0-2.23,11.67c-.23,5.13-.29,6.76-.29,19.82s.06,14.69.29,19.82a35.28,35.28,0,0,0,2.23,11.67,24.58,24.58,0,0,0,14.06,14.06,35.3,35.3,0,0,0,11.67,2.23c5.13.23,6.77.29,19.82.29s14.69-.06,19.82-.29a35.3,35.3,0,0,0,11.67-2.23A24.58,24.58,0,0,0,196,81.57a35.28,35.28,0,0,0,2.23-11.67c.23-5.13.29-6.76.29-19.82s-.06-14.69-.29-19.82A35.29,35.29,0,0,0,196,18.58a23.56,23.56,0,0,0-5.55-8.52,23.56,23.56,0,0,0-8.52-5.55,35.3,35.3,0,0,0-11.67-2.23C165.1,2.06,163.46,2,150.4,2"/><path class="cls-2" d="M150.4,25.39a24.69,24.69,0,1,0,24.69,24.69A24.69,24.69,0,0,0,150.4,25.39m0,40.71a16,16,0,1,1,16-16,16,16,0,0,1-16,16"/><path class="cls-2" d="M181.84,24.41a5.77,5.77,0,1,1-5.77-5.77,5.77,5.77,0,0,1,5.77,5.77"/><path class="cls-2" d="M138.79,198h19.3V149.66h13.47L173,133.47H158.1v-9.22c0-3.82.77-5.32,4.46-5.32H173v-16.8H159.63c-14.36,0-20.84,6.33-20.84,18.44v12.9h-10v16.39h10Z"/><path class="cls-2" d="M102.64,279.56a55.37,55.37,0,0,0,30,8.79c36.32,0,56.84-30.68,55.61-58.2A39.65,39.65,0,0,0,198,220a39.09,39.09,0,0,1-11.23,3.08,19.6,19.6,0,0,0,8.6-10.82A39.21,39.21,0,0,1,182.94,217a19.58,19.58,0,0,0-33.34,17.84,55.52,55.52,0,0,1-40.32-20.44,19.59,19.59,0,0,0,6.05,26.12,19.49,19.49,0,0,1-8.86-2.45,19.59,19.59,0,0,0,15.69,19.43,19.58,19.58,0,0,1-8.83.33,19.57,19.57,0,0,0,18.27,13.59A39.32,39.32,0,0,1,102.64,279.56Z"/><path class="cls-2" d="M186.13,381.35a47.35,47.35,0,0,0,.25-62.43,2.52,2.52,0,0,0-1-1.09,47.4,47.4,0,0,0-69.8,0,2.91,2.91,0,0,0-.3.21,3,3,0,0,0-.66.86,47.46,47.46,0,0,0,71,63h0A3,3,0,0,0,186.13,381.35Zm-77-28.39h16.26A85.63,85.63,0,0,0,127.12,368a47.5,47.5,0,0,0-9.59,7.17A41.32,41.32,0,0,1,109.08,353Zm8.45-28.19a47.51,47.51,0,0,0,9.59,7.17A85.69,85.69,0,0,0,125.34,347H109.08A41.32,41.32,0,0,1,117.53,324.76ZM191.95,347H175.69a85.66,85.66,0,0,0-1.78-15.09,47.48,47.48,0,0,0,9.59-7.17A41.32,41.32,0,0,1,191.95,347Zm-38.38-38c5.63,2,10.52,9.51,13.43,19.76a41.55,41.55,0,0,1-13.43,3.3Zm-5.94,23.07a41.54,41.54,0,0,1-13.6-3.31c2.93-10.35,7.9-17.89,13.6-19.82Zm0,6v9H131.28a81.12,81.12,0,0,1,1.37-12.42A47.46,47.46,0,0,0,147.63,338Zm0,14.94v9a47.48,47.48,0,0,0-15,3.42A81.17,81.17,0,0,1,131.28,353Zm0,15v23.14c-5.7-1.93-10.67-9.47-13.6-19.82A41.58,41.58,0,0,1,147.63,367.92Zm5.94,0a41.55,41.55,0,0,1,13.43,3.3c-2.9,10.24-7.8,17.73-13.43,19.76Zm0-6v-9h16.18a81.13,81.13,0,0,1-1.37,12.42A47.47,47.47,0,0,0,153.57,362Zm0-15v-9a47.47,47.47,0,0,0,14.81-3.4A81.15,81.15,0,0,1,169.75,347Zm18.8-21.08a48,48,0,0,0-7.2-14.83,41.65,41.65,0,0,1,14.39,9.2A41.53,41.53,0,0,1,172.37,325.95Zm-43.7,0a41.54,41.54,0,0,1-7.19-5.63,41.64,41.64,0,0,1,14.39-9.2A48,48,0,0,0,128.66,325.95Zm0,48.09a48,48,0,0,0,7.2,14.83,41.64,41.64,0,0,1-14.39-9.2A41.54,41.54,0,0,1,128.66,374Zm43.7,0a41.54,41.54,0,0,1,7.2,5.62,41.64,41.64,0,0,1-14.39,9.2A48,48,0,0,0,172.37,374Zm1.54-6A85.66,85.66,0,0,0,175.69,353h16.26a41.32,41.32,0,0,1-8.45,22.26A47.51,47.51,0,0,0,173.91,368.05Z"/><rect class="cls-2" x="108.39" y="435.7" width="17.76" height="57.39"/><ellipse class="cls-2" cx="117.19" cy="417.59" rx="10.5" ry="10.59"/><path class="cls-2" d="M154.55,463c0-8.07,3.71-12.87,10.82-12.87,6.53,0,9.67,4.61,9.67,12.87v30.13h17.68V456.75c0-15.37-8.71-22.8-20.88-22.8a20,20,0,0,0-17.3,9.48V435.7h-17v57.39h17Z"/><path class="cls-2" d="M194.56,525.63A36.41,36.41,0,0,0,185.07,513a42.59,42.59,0,0,0-14.28-7.92A55.77,55.77,0,0,0,153,502.33a53,53,0,0,0-19.18,3.49,48.59,48.59,0,0,0-15.95,10,47.72,47.72,0,0,0-10.94,15.64,50.12,50.12,0,0,0-4.07,20.54,50.72,50.72,0,0,0,3.54,19.65,39.44,39.44,0,0,0,9.85,14.23,41.87,41.87,0,0,0,14.9,8.65,58,58,0,0,0,18.71,2.92,55.25,55.25,0,0,0,10.16-.84,34.21,34.21,0,0,0,8.7-2.92,7.22,7.22,0,0,0,.86-6.07,6.31,6.31,0,0,0-4.09-3.94,29.5,29.5,0,0,1-7,2.19,37.66,37.66,0,0,1-6.88.72,47.64,47.64,0,0,1-15.9-2.45,31.61,31.61,0,0,1-11.62-7,29.71,29.71,0,0,1-7.14-11,41,41,0,0,1-2.45-14.59,39.41,39.41,0,0,1,2.92-15.27,36.59,36.59,0,0,1,8.08-12.14,37.88,37.88,0,0,1,12.14-8,38.76,38.76,0,0,1,15.11-2.92A50.4,50.4,0,0,1,166,514.84a29.28,29.28,0,0,1,10.69,5.26,25.16,25.16,0,0,1,7.14,9.12,31.14,31.14,0,0,1,2.61,13.34,30.15,30.15,0,0,1-1.3,9.38,20.8,20.8,0,0,1-3.39,6.56,13.57,13.57,0,0,1-4.69,3.86,12.16,12.16,0,0,1-5.31,1.25,3.31,3.31,0,0,1-3.49-2.19q-.78-2.19.06-7.09l5-28.25H166l-3.23,3.34a18.49,18.49,0,0,0-4.59-2.87,15.34,15.34,0,0,0-6.15-1.09A19.15,19.15,0,0,0,142,528.34a30.14,30.14,0,0,0-8.34,7.56A37.58,37.58,0,0,0,128,546.68a38.58,38.58,0,0,0-2.08,12.56,18.69,18.69,0,0,0,1,6.25,15.05,15.05,0,0,0,2.66,4.8,11.75,11.75,0,0,0,4,3.08,11,11,0,0,0,4.79,1.09,16.9,16.9,0,0,0,5.73-.94,18.67,18.67,0,0,0,4.79-2.55,25.33,25.33,0,0,0,4-3.7q1.82-2.08,3.38-4.27h.42a13.18,13.18,0,0,0,.42,5.42,8.06,8.06,0,0,0,2.24,3.55,8.76,8.76,0,0,0,3.75,1.93,19.43,19.43,0,0,0,4.85.57,27.88,27.88,0,0,0,11.73-2.5,30.85,30.85,0,0,0,16-16.88A33.23,33.23,0,0,0,198,542.56,40,40,0,0,0,194.56,525.63ZM156.83,553.1a30.35,30.35,0,0,1-2.61,4,28.64,28.64,0,0,1-3,3.33,15.34,15.34,0,0,1-3.23,2.35,6.7,6.7,0,0,1-3.13.88q-3.44,0-4.84-2.19a10.23,10.23,0,0,1-1.41-5.63,23.9,23.9,0,0,1,1-6.83,22.4,22.4,0,0,1,3-6.3,16.85,16.85,0,0,1,4.59-4.58,10.21,10.21,0,0,1,5.78-1.77,9.27,9.27,0,0,1,3.65.63,11.12,11.12,0,0,1,2.81,1.77Z"/></svg>