<svg id="Layer_1" data-name="Layer 1" xmlns="http://www.w3.org/2000/svg" viewBox="0 0 100 100"><defs><style>.cls-1{fill:#2454c9;}</style></defs><title>instagram-selected</title><path class="cls-1" d="M50.4,10.66c12.84,0,14.36,0,19.43.28a26.61,26.61,0,0,1,8.93,1.66,14.89,14.89,0,0,1,5.53,3.6,14.89,14.89,0,0,1,3.6,5.53,26.61,26.61,0,0,1,1.66,8.93c.23,5.07.28,6.59.28,19.43s0,14.36-.28,19.43a26.6,26.6,0,0,1-1.66,8.93,15.92,15.92,0,0,1-9.12,9.12,26.6,26.6,0,0,1-8.93,1.66c-5.07.23-6.59.28-19.43.28S36,89.44,31,89.21A26.6,26.6,0,0,1,22,87.56,14.9,14.9,0,0,1,16.52,84a14.9,14.9,0,0,1-3.6-5.53,26.6,26.6,0,0,1-1.66-8.93C11,64.44,11,62.91,11,50.08s0-14.36.28-19.43a26.61,26.61,0,0,1,1.66-8.93,14.9,14.9,0,0,1,3.6-5.53A14.89,14.89,0,0,1,22,12.6,26.61,26.61,0,0,1,31,10.94c5.07-.23,6.59-.28,19.43-.28M50.4,2c-13.06,0-14.69.06-19.82.29A35.3,35.3,0,0,0,18.91,4.52a23.56,23.56,0,0,0-8.52,5.55,23.56,23.56,0,0,0-5.55,8.52A35.29,35.29,0,0,0,2.62,30.26c-.23,5.13-.29,6.76-.29,19.82s.06,14.69.29,19.82A35.28,35.28,0,0,0,4.85,81.57a23.57,23.57,0,0,0,5.55,8.52,23.56,23.56,0,0,0,8.52,5.55,35.3,35.3,0,0,0,11.67,2.23c5.13.23,6.77.29,19.82.29s14.69-.06,19.82-.29A35.3,35.3,0,0,0,81.9,95.63,24.58,24.58,0,0,0,96,81.57,35.28,35.28,0,0,0,98.19,69.9c.23-5.13.29-6.76.29-19.82s-.06-14.69-.29-19.82A35.29,35.29,0,0,0,96,18.58a23.56,23.56,0,0,0-5.55-8.52A23.56,23.56,0,0,0,81.9,4.52,35.3,35.3,0,0,0,70.23,2.29C65.1,2.06,63.46,2,50.4,2"/><path class="cls-1" d="M50.4,25.39A24.69,24.69,0,1,0,75.09,50.08,24.69,24.69,0,0,0,50.4,25.39m0,40.71a16,16,0,1,1,16-16,16,16,0,0,1-16,16"/><path class="cls-1" d="M81.84,24.41a5.77,5.77,0,1,1-5.77-5.77,5.77,5.77,0,0,1,5.77,5.77"/></svg>